<svg width="445" height="439" viewBox="0 0 445 439" fill="none" xmlns="http://www.w3.org/2000/svg">
<circle cy="445" r="445" fill="url(#paint0_radial)" fill-opacity="0.5"/>
<path d="M75.0027 300.864L76.0206 306.132L79.9883 302.52L215.995 178.712L135.385 340.856L132.882 345.89L138.46 345.186L323.898 321.771L159.655 407.328L154.526 410L159.655 412.672L323.898 498.229L138.46 474.814L132.882 474.11L135.385 479.144L215.995 641.288L79.9883 517.48L76.0206 513.868L75.0027 519.136L40.803 696.122L6.6033 519.136L5.58533 513.868L1.61765 517.48L-134.389 641.288L-53.779 479.144L-51.2763 474.11L-56.8539 474.814L-242.292 498.229L-78.0493 412.672L-72.9205 410L-78.0493 407.328L-242.292 321.771L-56.8539 345.186L-51.2763 345.89L-53.779 340.856L-134.389 178.712L1.61765 302.52L5.58533 306.132L6.6033 300.864L40.803 123.878L75.0027 300.864Z" stroke="black" stroke-width="6.02494"/>
<defs>
<radialGradient id="paint0_radial" cx="0" cy="0" r="1" gradientUnits="userSpaceOnUse" gradientTransform="translate(0 445) rotate(90) scale(445)">
<stop stop-color="#FFB13C"/>
<stop offset="1" stop-color="#C4C4C4" stop-opacity="0"/>
</radialGradient>
</defs>
</svg>
