<svg width="426" height="482" viewBox="0 0 426 482" fill="none" xmlns="http://www.w3.org/2000/svg">
<path d="M363.944 91.7356L363.943 91.7357L320.391 97.5511C320.391 97.5511 320.39 97.5512 320.39 97.5513C319.006 97.7369 317.679 98.2178 316.497 98.9615L315.165 96.8457L316.497 98.9615C315.315 99.7053 314.308 100.695 313.542 101.862L313.542 101.863L288.52 140.01C283.038 148.369 270.09 145.259 269.011 135.319L256.437 19.6918C256.437 19.6916 256.437 19.6908 256.437 19.6906C256.218 17.6816 256.574 15.6522 257.465 13.838C258.355 12.0237 259.744 10.5 261.467 9.44461C263.191 8.38925 265.179 7.84577 267.2 7.87755C269.221 7.90932 271.191 8.51491 272.88 9.62367C272.881 9.62381 272.881 9.62395 272.881 9.62409L368.372 72.2573C376.623 77.6689 373.728 90.4263 363.944 91.7356Z" fill="#FFC0C0" stroke="black" stroke-width="5" stroke-linecap="square"/>
<path d="M349.049 93.1194L349.049 93.1195L305.497 98.9349C305.496 98.9349 305.496 98.935 305.495 98.935C304.112 99.1207 302.784 99.6016 301.603 100.345L300.271 98.2295L301.603 100.345C300.421 101.089 299.413 102.078 298.647 103.246L298.647 103.246L273.626 141.394C268.144 149.753 255.196 146.643 254.116 136.703L241.543 21.0756C241.543 21.0754 241.543 21.0746 241.543 21.0744C241.323 19.0653 241.68 17.036 242.57 15.2218C243.461 13.4075 244.849 11.8838 246.573 10.8284C248.297 9.77304 250.285 9.22956 252.306 9.26133C254.326 9.29311 256.296 9.89869 257.986 11.0075C257.986 11.0076 257.986 11.0077 257.987 11.0079L353.478 73.6411C361.728 79.0527 358.833 91.8101 349.049 93.1194Z" fill="#FF7373" stroke="black" stroke-width="5" stroke-linecap="square"/>
<rect x="136.138" y="332.267" width="359" height="188" rx="35" fill="#7FB2EE" stroke="#2187FF" stroke-width="4"/>
<rect x="109.138" y="348.267" width="359" height="188" rx="35" fill="#7FB2EE" stroke="#2187FF" stroke-width="4"/>
<rect x="85.1384" y="368.267" width="359" height="188" rx="35" fill="white" stroke="#2187FF" stroke-width="4"/>
<path d="M160.428 420.496L153.726 438.42L146.57 420.496H139.381L132.257 438.388L125.523 420.496H119.212L128.19 443.267H136.258L142.991 426.124L149.693 443.267H157.793L166.771 420.496H160.428ZM177.682 439.071C173.974 439.071 171.046 438.062 170.428 435.005H191.117C191.117 426.286 185.294 423.782 178.007 423.782C170.233 423.782 164.735 426.644 164.735 433.703C164.735 440.73 170.395 443.593 177.682 443.593C184.774 443.593 189.523 441.283 190.792 436.403H185.262C183.863 438.355 181.521 439.071 177.682 439.071ZM177.975 428.011C181.488 428.011 184.221 428.759 185.164 431.459H170.623C171.501 428.759 174.169 428.011 177.975 428.011ZM193.238 417.243V443.267H198.801V417.243H193.238ZM200.918 433.703C200.918 440.73 206.253 443.593 214.191 443.593C221.347 443.593 226.39 441.25 227.3 435.623H221.608C220.859 438.095 218.224 438.941 214.191 438.941C209.409 438.941 206.481 437.672 206.481 433.703C206.481 429.702 209.409 428.433 214.191 428.433C218.224 428.433 220.859 429.279 221.608 431.752H227.3C226.39 426.124 221.347 423.782 214.191 423.782C206.253 423.782 200.918 426.644 200.918 433.703ZM242.178 443.593C250.083 443.593 255.45 440.73 255.45 433.703C255.45 426.644 250.083 423.782 242.178 423.782C234.241 423.782 228.906 426.644 228.906 433.703C228.906 440.73 234.241 443.593 242.178 443.593ZM242.178 438.941C237.006 438.941 234.468 437.672 234.468 433.703C234.468 429.702 237.006 428.433 242.178 428.433C247.318 428.433 249.855 429.702 249.855 433.703C249.855 437.672 247.318 438.941 242.178 438.941ZM290.814 423.782C286.064 423.782 282.649 425.441 280.176 427.295C278.712 424.627 275.98 423.782 273.085 423.782C268.335 423.782 265.212 425.571 263.131 427.23V424.107H257.568V443.267H263.131V431.979C264.724 430.255 267.847 428.596 271.068 428.596C275.037 428.596 275.72 430.711 275.72 434.777V443.267H281.282L281.347 432.532C281.347 432.174 281.347 431.849 281.315 431.524C283.006 429.995 285.869 428.596 288.797 428.596C292.765 428.596 293.449 430.711 293.449 434.777V443.267H299.011L299.076 432.532C299.011 425.603 295.108 423.782 290.814 423.782ZM313.997 439.071C310.289 439.071 307.361 438.062 306.743 435.005H327.432C327.432 426.286 321.609 423.782 314.322 423.782C306.548 423.782 301.05 426.644 301.05 433.703C301.05 440.73 306.71 443.593 313.997 443.593C321.089 443.593 325.838 441.283 327.107 436.403H321.577C320.178 438.355 317.836 439.071 313.997 439.071ZM314.29 428.011C317.803 428.011 320.536 428.759 321.479 431.459H306.938C307.816 428.759 310.484 428.011 314.29 428.011ZM124.601 466.419C123.603 466.419 122.707 466.246 121.912 465.899C121.131 465.537 120.517 465.046 120.069 464.424C119.62 463.788 119.389 463.058 119.375 462.233H121.478C121.55 462.942 121.84 463.542 122.346 464.033C122.866 464.511 123.618 464.749 124.601 464.749C125.541 464.749 126.278 464.518 126.813 464.055C127.363 463.578 127.637 462.971 127.637 462.233C127.637 461.655 127.478 461.185 127.16 460.824C126.842 460.462 126.444 460.188 125.967 460C125.49 459.812 124.847 459.609 124.037 459.393C123.04 459.132 122.237 458.872 121.63 458.612C121.037 458.352 120.524 457.947 120.09 457.397C119.671 456.833 119.461 456.082 119.461 455.142C119.461 454.318 119.671 453.588 120.09 452.952C120.51 452.315 121.095 451.824 121.847 451.477C122.613 451.13 123.488 450.956 124.471 450.956C125.888 450.956 127.044 451.311 127.941 452.019C128.852 452.727 129.365 453.667 129.481 454.838H127.312C127.24 454.26 126.936 453.754 126.401 453.32C125.866 452.872 125.158 452.648 124.276 452.648C123.452 452.648 122.779 452.865 122.259 453.299C121.738 453.718 121.478 454.311 121.478 455.077C121.478 455.626 121.63 456.074 121.934 456.421C122.252 456.768 122.635 457.036 123.083 457.224C123.546 457.397 124.189 457.6 125.013 457.831C126.011 458.106 126.813 458.38 127.42 458.655C128.028 458.915 128.548 459.327 128.982 459.891C129.416 460.441 129.632 461.193 129.632 462.147C129.632 462.884 129.437 463.578 129.047 464.229C128.657 464.879 128.078 465.407 127.312 465.812C126.546 466.217 125.642 466.419 124.601 466.419ZM134.944 456.009V463.014C134.944 463.593 135.067 464.005 135.312 464.25C135.558 464.482 135.985 464.597 136.592 464.597H138.045V466.267H136.267C135.168 466.267 134.344 466.014 133.794 465.508C133.245 465.002 132.97 464.171 132.97 463.014V456.009H131.431V454.383H132.97V451.39H134.944V454.383H138.045V456.009H134.944ZM139.699 460.282C139.699 459.067 139.945 458.005 140.436 457.094C140.928 456.168 141.6 455.453 142.453 454.947C143.32 454.441 144.282 454.188 145.337 454.188C146.378 454.188 147.282 454.412 148.048 454.86C148.814 455.308 149.386 455.872 149.761 456.552V454.383H151.757V466.267H149.761V464.055C149.371 464.749 148.786 465.327 148.005 465.79C147.239 466.238 146.342 466.462 145.316 466.462C144.26 466.462 143.306 466.202 142.453 465.682C141.6 465.161 140.928 464.431 140.436 463.491C139.945 462.552 139.699 461.482 139.699 460.282ZM149.761 460.303C149.761 459.407 149.581 458.626 149.219 457.961C148.858 457.296 148.366 456.79 147.745 456.443C147.137 456.082 146.465 455.901 145.728 455.901C144.99 455.901 144.318 456.074 143.711 456.421C143.104 456.768 142.619 457.274 142.258 457.94C141.896 458.605 141.716 459.385 141.716 460.282C141.716 461.193 141.896 461.988 142.258 462.667C142.619 463.332 143.104 463.846 143.711 464.207C144.318 464.554 144.99 464.727 145.728 464.727C146.465 464.727 147.137 464.554 147.745 464.207C148.366 463.846 148.858 463.332 149.219 462.667C149.581 461.988 149.761 461.2 149.761 460.303ZM160.882 454.166C162.328 454.166 163.499 454.607 164.395 455.489C165.292 456.356 165.74 457.614 165.74 459.262V466.267H163.788V459.544C163.788 458.359 163.492 457.455 162.899 456.833C162.306 456.197 161.496 455.879 160.47 455.879C159.429 455.879 158.598 456.205 157.976 456.855C157.369 457.506 157.065 458.453 157.065 459.696V466.267H155.092V454.383H157.065V456.074C157.455 455.467 157.983 454.997 158.648 454.665C159.328 454.332 160.072 454.166 160.882 454.166ZM170.937 450.219V466.267H168.964V450.219H170.937ZM185.144 459.87C185.144 460.246 185.122 460.643 185.079 461.062H175.58C175.652 462.233 176.05 463.152 176.773 463.817C177.51 464.467 178.399 464.793 179.44 464.793C180.293 464.793 181.002 464.597 181.566 464.207C182.144 463.802 182.549 463.267 182.78 462.602H184.905C184.587 463.744 183.951 464.677 182.997 465.4C182.043 466.108 180.857 466.462 179.44 466.462C178.313 466.462 177.3 466.209 176.404 465.703C175.522 465.197 174.828 464.482 174.322 463.556C173.816 462.617 173.563 461.532 173.563 460.303C173.563 459.074 173.809 457.997 174.3 457.072C174.792 456.147 175.479 455.438 176.361 454.947C177.257 454.441 178.284 454.188 179.44 454.188C180.568 454.188 181.566 454.433 182.433 454.925C183.3 455.417 183.966 456.096 184.428 456.964C184.905 457.817 185.144 458.785 185.144 459.87ZM183.105 459.458C183.105 458.706 182.939 458.062 182.607 457.527C182.274 456.978 181.819 456.566 181.24 456.291C180.676 456.002 180.047 455.858 179.354 455.858C178.356 455.858 177.503 456.176 176.794 456.812C176.1 457.448 175.703 458.33 175.602 459.458H183.105ZM197.985 454.383L190.828 471.862H188.79L191.132 466.137L186.339 454.383H188.53L192.26 464.012L195.946 454.383H197.985ZM207.724 464.662H213.016V466.267H205.751V451.152H207.724V464.662ZM225.955 459.87C225.955 460.246 225.933 460.643 225.89 461.062H216.391C216.463 462.233 216.861 463.152 217.584 463.817C218.321 464.467 219.21 464.793 220.251 464.793C221.104 464.793 221.813 464.597 222.376 464.207C222.955 463.802 223.36 463.267 223.591 462.602H225.716C225.398 463.744 224.762 464.677 223.808 465.4C222.854 466.108 221.668 466.462 220.251 466.462C219.123 466.462 218.111 466.209 217.215 465.703C216.333 465.197 215.639 464.482 215.133 463.556C214.627 462.617 214.374 461.532 214.374 460.303C214.374 459.074 214.62 457.997 215.111 457.072C215.603 456.147 216.29 455.438 217.172 454.947C218.068 454.441 219.095 454.188 220.251 454.188C221.379 454.188 222.376 454.433 223.244 454.925C224.111 455.417 224.776 456.096 225.239 456.964C225.716 457.817 225.955 458.785 225.955 459.87ZM223.916 459.458C223.916 458.706 223.75 458.062 223.417 457.527C223.085 456.978 222.629 456.566 222.051 456.291C221.487 456.002 220.858 455.858 220.164 455.858C219.167 455.858 218.314 456.176 217.605 456.812C216.911 457.448 216.514 458.33 216.413 459.458H223.916ZM239.403 459.87C239.403 460.246 239.381 460.643 239.338 461.062H229.839C229.912 462.233 230.309 463.152 231.032 463.817C231.769 464.467 232.659 464.793 233.699 464.793C234.552 464.793 235.261 464.597 235.825 464.207C236.403 463.802 236.808 463.267 237.039 462.602H239.165C238.846 463.744 238.21 464.677 237.256 465.4C236.302 466.108 235.116 466.462 233.699 466.462C232.572 466.462 231.56 466.209 230.663 465.703C229.781 465.197 229.087 464.482 228.581 463.556C228.075 462.617 227.822 461.532 227.822 460.303C227.822 459.074 228.068 457.997 228.56 457.072C229.051 456.147 229.738 455.438 230.62 454.947C231.516 454.441 232.543 454.188 233.699 454.188C234.827 454.188 235.825 454.433 236.692 454.925C237.56 455.417 238.225 456.096 238.687 456.964C239.165 457.817 239.403 458.785 239.403 459.87ZM237.365 459.458C237.365 458.706 237.198 458.062 236.866 457.527C236.533 456.978 236.078 456.566 235.499 456.291C234.936 456.002 234.307 455.858 233.613 455.858C232.615 455.858 231.762 456.176 231.054 456.812C230.36 457.448 229.962 458.33 229.861 459.458H237.365Z" fill="black"/>
<path d="M394.982 394.08H416.295V396.017H394.982V394.08Z" fill="black"/>
<path d="M394.982 402.798H416.295V404.736H394.982V402.798Z" fill="black"/>
<path d="M394.982 411.517H416.295V413.455H394.982V411.517Z" fill="black"/>
</svg>
