<svg width="426" height="322" viewBox="0 0 426 322" fill="none" xmlns="http://www.w3.org/2000/svg">
<rect x="136.138" y="172.267" width="359" height="188" rx="35" fill="#7FB2EE" stroke="#2187FF" stroke-width="4"/>
<rect x="109.138" y="188.267" width="359" height="188" rx="35" fill="#7FB2EE" stroke="#2187FF" stroke-width="4"/>
<rect x="85.1384" y="208.267" width="359" height="188" rx="35" fill="white" stroke="#2187FF" stroke-width="4"/>
<path d="M160.428 260.496L153.726 278.42L146.57 260.496H139.381L132.257 278.388L125.523 260.496H119.212L128.19 283.267H136.258L142.991 266.124L149.693 283.267H157.793L166.771 260.496H160.428ZM177.682 279.071C173.974 279.071 171.046 278.062 170.428 275.005H191.117C191.117 266.286 185.294 263.782 178.007 263.782C170.233 263.782 164.735 266.644 164.735 273.703C164.735 280.73 170.395 283.593 177.682 283.593C184.774 283.593 189.523 281.283 190.792 276.403H185.262C183.863 278.355 181.521 279.071 177.682 279.071ZM177.975 268.011C181.488 268.011 184.221 268.759 185.164 271.459H170.623C171.501 268.759 174.169 268.011 177.975 268.011ZM193.238 257.243V283.267H198.801V257.243H193.238ZM200.918 273.703C200.918 280.73 206.253 283.593 214.191 283.593C221.347 283.593 226.39 281.25 227.3 275.623H221.608C220.859 278.095 218.224 278.941 214.191 278.941C209.409 278.941 206.481 277.672 206.481 273.703C206.481 269.702 209.409 268.433 214.191 268.433C218.224 268.433 220.859 269.279 221.608 271.752H227.3C226.39 266.124 221.347 263.782 214.191 263.782C206.253 263.782 200.918 266.644 200.918 273.703ZM242.178 283.593C250.083 283.593 255.45 280.73 255.45 273.703C255.45 266.644 250.083 263.782 242.178 263.782C234.241 263.782 228.906 266.644 228.906 273.703C228.906 280.73 234.241 283.593 242.178 283.593ZM242.178 278.941C237.006 278.941 234.468 277.672 234.468 273.703C234.468 269.702 237.006 268.433 242.178 268.433C247.318 268.433 249.855 269.702 249.855 273.703C249.855 277.672 247.318 278.941 242.178 278.941ZM290.814 263.782C286.064 263.782 282.649 265.441 280.176 267.295C278.712 264.627 275.98 263.782 273.085 263.782C268.335 263.782 265.212 265.571 263.131 267.23V264.107H257.568V283.267H263.131V271.979C264.724 270.255 267.847 268.596 271.068 268.596C275.037 268.596 275.72 270.711 275.72 274.777V283.267H281.282L281.347 272.532C281.347 272.174 281.347 271.849 281.315 271.524C283.006 269.995 285.869 268.596 288.797 268.596C292.765 268.596 293.449 270.711 293.449 274.777V283.267H299.011L299.076 272.532C299.011 265.603 295.108 263.782 290.814 263.782ZM313.997 279.071C310.289 279.071 307.361 278.062 306.743 275.005H327.432C327.432 266.286 321.609 263.782 314.322 263.782C306.548 263.782 301.05 266.644 301.05 273.703C301.05 280.73 306.71 283.593 313.997 283.593C321.089 283.593 325.838 281.283 327.107 276.403H321.577C320.178 278.355 317.836 279.071 313.997 279.071ZM314.29 268.011C317.803 268.011 320.536 268.759 321.479 271.459H306.938C307.816 268.759 310.484 268.011 314.29 268.011ZM124.601 306.419C123.603 306.419 122.707 306.246 121.912 305.899C121.131 305.537 120.517 305.046 120.069 304.424C119.62 303.788 119.389 303.058 119.375 302.233H121.478C121.55 302.942 121.84 303.542 122.346 304.033C122.866 304.511 123.618 304.749 124.601 304.749C125.541 304.749 126.278 304.518 126.813 304.055C127.363 303.578 127.637 302.971 127.637 302.233C127.637 301.655 127.478 301.185 127.16 300.824C126.842 300.462 126.444 300.188 125.967 300C125.49 299.812 124.847 299.609 124.037 299.393C123.04 299.132 122.237 298.872 121.63 298.612C121.037 298.352 120.524 297.947 120.09 297.397C119.671 296.833 119.461 296.082 119.461 295.142C119.461 294.318 119.671 293.588 120.09 292.952C120.51 292.315 121.095 291.824 121.847 291.477C122.613 291.13 123.488 290.956 124.471 290.956C125.888 290.956 127.044 291.311 127.941 292.019C128.852 292.727 129.365 293.667 129.481 294.838H127.312C127.24 294.26 126.936 293.754 126.401 293.32C125.866 292.872 125.158 292.648 124.276 292.648C123.452 292.648 122.779 292.865 122.259 293.299C121.738 293.718 121.478 294.311 121.478 295.077C121.478 295.626 121.63 296.074 121.934 296.421C122.252 296.768 122.635 297.036 123.083 297.224C123.546 297.397 124.189 297.6 125.013 297.831C126.011 298.106 126.813 298.38 127.42 298.655C128.028 298.915 128.548 299.327 128.982 299.891C129.416 300.441 129.632 301.193 129.632 302.147C129.632 302.884 129.437 303.578 129.047 304.229C128.657 304.879 128.078 305.407 127.312 305.812C126.546 306.217 125.642 306.419 124.601 306.419ZM134.944 296.009V303.014C134.944 303.593 135.067 304.005 135.312 304.25C135.558 304.482 135.985 304.597 136.592 304.597H138.045V306.267H136.267C135.168 306.267 134.344 306.014 133.794 305.508C133.245 305.002 132.97 304.171 132.97 303.014V296.009H131.431V294.383H132.97V291.39H134.944V294.383H138.045V296.009H134.944ZM139.699 300.282C139.699 299.067 139.945 298.005 140.436 297.094C140.928 296.168 141.6 295.453 142.453 294.947C143.32 294.441 144.282 294.188 145.337 294.188C146.378 294.188 147.282 294.412 148.048 294.86C148.814 295.308 149.386 295.872 149.761 296.552V294.383H151.757V306.267H149.761V304.055C149.371 304.749 148.786 305.327 148.005 305.79C147.239 306.238 146.342 306.462 145.316 306.462C144.26 306.462 143.306 306.202 142.453 305.682C141.6 305.161 140.928 304.431 140.436 303.491C139.945 302.552 139.699 301.482 139.699 300.282ZM149.761 300.303C149.761 299.407 149.581 298.626 149.219 297.961C148.858 297.296 148.366 296.79 147.745 296.443C147.137 296.082 146.465 295.901 145.728 295.901C144.99 295.901 144.318 296.074 143.711 296.421C143.104 296.768 142.619 297.274 142.258 297.94C141.896 298.605 141.716 299.385 141.716 300.282C141.716 301.193 141.896 301.988 142.258 302.667C142.619 303.332 143.104 303.846 143.711 304.207C144.318 304.554 144.99 304.727 145.728 304.727C146.465 304.727 147.137 304.554 147.745 304.207C148.366 303.846 148.858 303.332 149.219 302.667C149.581 301.988 149.761 301.2 149.761 300.303ZM160.882 294.166C162.328 294.166 163.499 294.607 164.395 295.489C165.292 296.356 165.74 297.614 165.74 299.262V306.267H163.788V299.544C163.788 298.359 163.492 297.455 162.899 296.833C162.306 296.197 161.496 295.879 160.47 295.879C159.429 295.879 158.598 296.205 157.976 296.855C157.369 297.506 157.065 298.453 157.065 299.696V306.267H155.092V294.383H157.065V296.074C157.455 295.467 157.983 294.997 158.648 294.665C159.328 294.332 160.072 294.166 160.882 294.166ZM170.937 290.219V306.267H168.964V290.219H170.937ZM185.144 299.87C185.144 300.246 185.122 300.643 185.079 301.062H175.58C175.652 302.233 176.05 303.152 176.773 303.817C177.51 304.467 178.399 304.793 179.44 304.793C180.293 304.793 181.002 304.597 181.566 304.207C182.144 303.802 182.549 303.267 182.78 302.602H184.905C184.587 303.744 183.951 304.677 182.997 305.4C182.043 306.108 180.857 306.462 179.44 306.462C178.313 306.462 177.3 306.209 176.404 305.703C175.522 305.197 174.828 304.482 174.322 303.556C173.816 302.617 173.563 301.532 173.563 300.303C173.563 299.074 173.809 297.997 174.3 297.072C174.792 296.147 175.479 295.438 176.361 294.947C177.257 294.441 178.284 294.188 179.44 294.188C180.568 294.188 181.566 294.433 182.433 294.925C183.3 295.417 183.966 296.096 184.428 296.964C184.905 297.817 185.144 298.785 185.144 299.87ZM183.105 299.458C183.105 298.706 182.939 298.062 182.607 297.527C182.274 296.978 181.819 296.566 181.24 296.291C180.676 296.002 180.047 295.858 179.354 295.858C178.356 295.858 177.503 296.176 176.794 296.812C176.1 297.448 175.703 298.33 175.602 299.458H183.105ZM197.985 294.383L190.828 311.862H188.79L191.132 306.137L186.339 294.383H188.53L192.26 304.012L195.946 294.383H197.985ZM207.724 304.662H213.016V306.267H205.751V291.152H207.724V304.662ZM225.955 299.87C225.955 300.246 225.933 300.643 225.89 301.062H216.391C216.463 302.233 216.861 303.152 217.584 303.817C218.321 304.467 219.21 304.793 220.251 304.793C221.104 304.793 221.813 304.597 222.376 304.207C222.955 303.802 223.36 303.267 223.591 302.602H225.716C225.398 303.744 224.762 304.677 223.808 305.4C222.854 306.108 221.668 306.462 220.251 306.462C219.123 306.462 218.111 306.209 217.215 305.703C216.333 305.197 215.639 304.482 215.133 303.556C214.627 302.617 214.374 301.532 214.374 300.303C214.374 299.074 214.62 297.997 215.111 297.072C215.603 296.147 216.29 295.438 217.172 294.947C218.068 294.441 219.095 294.188 220.251 294.188C221.379 294.188 222.376 294.433 223.244 294.925C224.111 295.417 224.776 296.096 225.239 296.964C225.716 297.817 225.955 298.785 225.955 299.87ZM223.916 299.458C223.916 298.706 223.75 298.062 223.417 297.527C223.085 296.978 222.629 296.566 222.051 296.291C221.487 296.002 220.858 295.858 220.164 295.858C219.167 295.858 218.314 296.176 217.605 296.812C216.911 297.448 216.514 298.33 216.413 299.458H223.916ZM239.403 299.87C239.403 300.246 239.381 300.643 239.338 301.062H229.839C229.912 302.233 230.309 303.152 231.032 303.817C231.769 304.467 232.659 304.793 233.699 304.793C234.552 304.793 235.261 304.597 235.825 304.207C236.403 303.802 236.808 303.267 237.039 302.602H239.165C238.846 303.744 238.21 304.677 237.256 305.4C236.302 306.108 235.116 306.462 233.699 306.462C232.572 306.462 231.56 306.209 230.663 305.703C229.781 305.197 229.087 304.482 228.581 303.556C228.075 302.617 227.822 301.532 227.822 300.303C227.822 299.074 228.068 297.997 228.56 297.072C229.051 296.147 229.738 295.438 230.62 294.947C231.516 294.441 232.543 294.188 233.699 294.188C234.827 294.188 235.825 294.433 236.692 294.925C237.56 295.417 238.225 296.096 238.687 296.964C239.165 297.817 239.403 298.785 239.403 299.87ZM237.365 299.458C237.365 298.706 237.198 298.062 236.866 297.527C236.533 296.978 236.078 296.566 235.499 296.291C234.936 296.002 234.307 295.858 233.613 295.858C232.615 295.858 231.762 296.176 231.054 296.812C230.36 297.448 229.962 298.33 229.861 299.458H237.365Z" fill="black"/>
<path d="M394.982 234.08H416.295V236.017H394.982V234.08Z" fill="black"/>
<path d="M394.982 242.798H416.295V244.736H394.982V242.798Z" fill="black"/>
<path d="M394.982 251.517H416.295V253.455H394.982V251.517Z" fill="black"/>
</svg>
