<svg width="106" height="23" viewBox="0 0 106 23" fill="none" xmlns="http://www.w3.org/2000/svg">
<path d="M22.1173 10.8381C22.1173 9.8323 22.349 8.93007 22.8125 8.13138C23.2858 7.33268 23.9218 6.71147 24.7205 6.26776C25.529 5.81418 26.4115 5.58739 27.368 5.58739C28.4625 5.58739 29.4338 5.85855 30.2818 6.40087C31.1396 6.93333 31.7608 7.69259 32.1454 8.67863H30.1191C29.8528 8.13631 29.4831 7.73203 29.0098 7.4658C28.5365 7.19957 27.9892 7.06645 27.368 7.06645C26.6876 7.06645 26.0812 7.21929 25.5488 7.52496C25.0163 7.83063 24.5972 8.26942 24.2915 8.84133C23.9957 9.41323 23.8478 10.0788 23.8478 10.8381C23.8478 11.5973 23.9957 12.2629 24.2915 12.8348C24.5972 13.4067 25.0163 13.8504 25.5488 14.166C26.0812 14.4716 26.6876 14.6245 27.368 14.6245C27.9892 14.6245 28.5365 14.4914 29.0098 14.2251C29.4831 13.9589 29.8528 13.5546 30.1191 13.0123H32.1454C31.7608 13.9983 31.1396 14.7576 30.2818 15.29C29.4338 15.8225 28.4625 16.0887 27.368 16.0887C26.4017 16.0887 25.5192 15.8669 24.7205 15.4232C23.9218 14.9696 23.2858 14.3434 22.8125 13.5448C22.349 12.7461 22.1173 11.8438 22.1173 10.8381ZM41.4995 7.85035V16H39.8134V15.0386C39.5472 15.3739 39.1971 15.6401 38.7633 15.8373C38.3393 16.0247 37.8857 16.1183 37.4025 16.1183C36.7616 16.1183 36.1848 15.9852 35.672 15.719C35.1691 15.4527 34.7698 15.0583 34.474 14.5357C34.188 14.0131 34.0451 13.3821 34.0451 12.6425V7.85035H35.7164V12.3911C35.7164 13.1208 35.8988 13.6828 36.2636 14.0772C36.6285 14.4618 37.1264 14.6541 37.7575 14.6541C38.3886 14.6541 38.8865 14.4618 39.2514 14.0772C39.6261 13.6828 39.8134 13.1208 39.8134 12.3911V7.85035H41.4995ZM46.6824 16.1331C46.0415 16.1331 45.4646 16.0197 44.9519 15.7929C44.449 15.5563 44.0497 15.2407 43.7538 14.8463C43.458 14.4421 43.3003 13.9934 43.2805 13.5004H45.0258C45.0554 13.8455 45.2181 14.1364 45.5139 14.373C45.8196 14.5998 46.1992 14.7132 46.6528 14.7132C47.1261 14.7132 47.4909 14.6245 47.7473 14.447C48.0135 14.2596 48.1467 14.023 48.1467 13.737C48.1467 13.4314 47.9988 13.2046 47.7029 13.0567C47.417 12.9088 46.9585 12.7461 46.3274 12.5686C45.7161 12.4009 45.2181 12.2382 44.8336 12.0805C44.449 11.9227 44.1137 11.6811 43.8278 11.3557C43.5517 11.0303 43.4137 10.6014 43.4137 10.069C43.4137 9.63509 43.5418 9.24067 43.7982 8.8857C44.0546 8.52086 44.4194 8.23491 44.8927 8.02784C45.3759 7.82077 45.9281 7.71724 46.5493 7.71724C47.4762 7.71724 48.2206 7.95389 48.7827 8.42719C49.3546 8.89063 49.6602 9.52663 49.6997 10.3352H48.0135C47.984 9.97035 47.8361 9.67946 47.5698 9.46253C47.3036 9.24561 46.9437 9.13714 46.4901 9.13714C46.0464 9.13714 45.7062 9.22095 45.4696 9.38858C45.2329 9.55621 45.1146 9.77807 45.1146 10.0542C45.1146 10.2711 45.1935 10.4535 45.3512 10.6014C45.509 10.7493 45.7013 10.8676 45.9281 10.9564C46.1549 11.0353 46.4901 11.1388 46.9338 11.267C47.5255 11.4248 48.0086 11.5875 48.3833 11.7551C48.7679 11.9129 49.0982 12.1495 49.3743 12.465C49.6504 12.7806 49.7934 13.1996 49.8032 13.7222C49.8032 14.1857 49.675 14.5998 49.4187 14.9647C49.1623 15.3295 48.7974 15.6154 48.3241 15.8225C47.8607 16.0296 47.3135 16.1331 46.6824 16.1331ZM53.5923 9.22588V13.737C53.5923 14.0427 53.6613 14.2646 53.7993 14.4026C53.9473 14.5308 54.1938 14.5949 54.5389 14.5949H55.5742V16H54.2431C53.4838 16 52.902 15.8225 52.4978 15.4675C52.0935 15.1126 51.8914 14.5357 51.8914 13.737V9.22588H50.93V7.85035H51.8914V5.82404H53.5923V7.85035H55.5742V9.22588H53.5923ZM60.6632 16.1331C59.8941 16.1331 59.199 15.9606 58.5778 15.6154C57.9566 15.2605 57.4685 14.7674 57.1135 14.1364C56.7585 13.4955 56.581 12.7559 56.581 11.9178C56.581 11.0895 56.7634 10.3549 57.1283 9.71398C57.4931 9.07305 57.9911 8.58003 58.6221 8.23491C59.2532 7.8898 59.9582 7.71724 60.7372 7.71724C61.5162 7.71724 62.2212 7.8898 62.8523 8.23491C63.4833 8.58003 63.9813 9.07305 64.3461 9.71398C64.711 10.3549 64.8934 11.0895 64.8934 11.9178C64.8934 12.7461 64.706 13.4807 64.3313 14.1216C63.9566 14.7625 63.4439 15.2605 62.7931 15.6154C62.1522 15.9606 61.4422 16.1331 60.6632 16.1331ZM60.6632 14.6688C61.0971 14.6688 61.5014 14.5653 61.8761 14.3582C62.2606 14.1512 62.5712 13.8406 62.8079 13.4264C63.0445 13.0123 63.1629 12.5094 63.1629 11.9178C63.1629 11.3262 63.0495 10.8282 62.8227 10.4239C62.5959 10.0098 62.2951 9.69918 61.9204 9.49212C61.5458 9.28505 61.1415 9.18151 60.7076 9.18151C60.2738 9.18151 59.8695 9.28505 59.4948 9.49212C59.1299 9.69918 58.8391 10.0098 58.6221 10.4239C58.4052 10.8282 58.2967 11.3262 58.2967 11.9178C58.2967 12.7954 58.5186 13.4757 58.9623 13.9589C59.4159 14.4322 59.9829 14.6688 60.6632 14.6688ZM76.4256 7.71724C77.0665 7.71724 77.6384 7.85035 78.1413 8.11659C78.654 8.38282 79.0534 8.77723 79.3393 9.29984C79.6351 9.82244 79.783 10.4535 79.783 11.193V16H78.1117V11.4445C78.1117 10.7148 77.9293 10.1577 77.5644 9.77314C77.1996 9.37872 76.7017 9.18151 76.0706 9.18151C75.4395 9.18151 74.9366 9.37872 74.5619 9.77314C74.1971 10.1577 74.0147 10.7148 74.0147 11.4445V16H72.3433V11.4445C72.3433 10.7148 72.1609 10.1577 71.7961 9.77314C71.4313 9.37872 70.9333 9.18151 70.3022 9.18151C69.6712 9.18151 69.1683 9.37872 68.7936 9.77314C68.4288 10.1577 68.2463 10.7148 68.2463 11.4445V16H66.5602V7.85035H68.2463V8.78216C68.5224 8.44691 68.8725 8.18561 69.2965 7.99826C69.7205 7.81091 70.1741 7.71724 70.6572 7.71724C71.308 7.71724 71.8898 7.85528 72.4025 8.13138C72.9153 8.40747 73.3097 8.80682 73.5858 9.32942C73.8323 8.8364 74.2168 8.44691 74.7394 8.16096C75.262 7.86515 75.8241 7.71724 76.4256 7.71724ZM82.7865 6.77064C82.4808 6.77064 82.2244 6.6671 82.0174 6.46003C81.8103 6.25296 81.7067 5.99659 81.7067 5.69092C81.7067 5.38525 81.8103 5.12888 82.0174 4.92181C82.2244 4.71474 82.4808 4.6112 82.7865 4.6112C83.0823 4.6112 83.3337 4.71474 83.5408 4.92181C83.7479 5.12888 83.8514 5.38525 83.8514 5.69092C83.8514 5.99659 83.7479 6.25296 83.5408 6.46003C83.3337 6.6671 83.0823 6.77064 82.7865 6.77064ZM83.6147 7.85035V16H81.9286V7.85035H83.6147ZM87.3223 14.6245H91.02V16H85.37V14.6245L89.0824 9.22588H85.37V7.85035H91.02V9.22588L87.3223 14.6245ZM100.26 11.7255C100.26 12.0312 100.24 12.3073 100.201 12.5538H93.9737C94.023 13.2046 94.2646 13.7272 94.6985 14.1216C95.1323 14.516 95.6648 14.7132 96.2959 14.7132C97.203 14.7132 97.844 14.3336 98.2187 13.5743H100.038C99.7914 14.3237 99.3427 14.94 98.692 15.4232C98.051 15.8965 97.2523 16.1331 96.2959 16.1331C95.5169 16.1331 94.8168 15.9606 94.1956 15.6154C93.5843 15.2605 93.1011 14.7674 92.7461 14.1364C92.401 13.4955 92.2284 12.7559 92.2284 11.9178C92.2284 11.0796 92.3961 10.345 92.7313 9.71398C93.0764 9.07305 93.5547 8.58003 94.166 8.23491C94.7872 7.8898 95.4972 7.71724 96.2959 7.71724C97.065 7.71724 97.7503 7.88487 98.3518 8.22012C98.9533 8.55538 99.4216 9.02868 99.7569 9.64002C100.092 10.2415 100.26 10.9367 100.26 11.7255ZM98.4997 11.193C98.4898 10.5718 98.268 10.0739 97.8341 9.69918C97.4002 9.32449 96.8628 9.13714 96.2219 9.13714C95.6402 9.13714 95.1422 9.32449 94.7281 9.69918C94.3139 10.064 94.0674 10.562 93.9885 11.193H98.4997Z" fill="#333333"/>
<path d="M8.88173 4.14652C8.80371 4.10498 8.71667 4.08325 8.62828 4.08325C8.53989 4.08325 8.45286 4.10498 8.37484 4.14652L0.286203 8.46046C0.200062 8.50649 0.128038 8.57504 0.0778204 8.65881C0.0276031 8.74257 0.00107848 8.83841 0.00107848 8.93607C0.00107848 9.03374 0.0276031 9.12957 0.0778204 9.21334C0.128038 9.2971 0.200062 9.36566 0.286203 9.41168L3.43861 11.093L0.285125 12.7744C0.198983 12.8204 0.126959 12.889 0.0767419 12.9727C0.0265247 13.0565 0 13.1523 0 13.25C0 13.3477 0.0265247 13.4435 0.0767419 13.5273C0.126959 13.611 0.198983 13.6796 0.285125 13.7256L8.37376 18.0396C8.45178 18.0811 8.53881 18.1028 8.6272 18.1028C8.71559 18.1028 8.80263 18.0811 8.88065 18.0396L16.9693 13.7256C17.0554 13.6796 17.1274 13.611 17.1777 13.5273C17.2279 13.4435 17.2544 13.3477 17.2544 13.25C17.2544 13.1523 17.2279 13.0565 17.1777 12.9727C17.1274 12.889 17.0554 12.8204 16.9693 12.7744L13.819 11.093L16.9704 9.41168C17.0565 9.36566 17.1285 9.2971 17.1787 9.21334C17.229 9.12957 17.2555 9.03374 17.2555 8.93607C17.2555 8.83841 17.229 8.74257 17.1787 8.65881C17.1285 8.57504 17.0565 8.50649 16.9704 8.46046L8.88173 4.14652ZM12.6726 11.7045L15.5716 13.25L8.62828 16.9524L1.685 13.25L4.58396 11.7045L8.37484 13.7256C8.45286 13.7672 8.53989 13.7889 8.62828 13.7889C8.71667 13.7889 8.80371 13.7672 8.88173 13.7256L12.6726 11.7045ZM8.62828 12.6385L1.685 8.93607L8.62828 5.23364L15.5716 8.93607L8.62828 12.6385Z" fill="#333333"/>
</svg>
