<svg width="215" height="59" viewBox="0 0 215 59" fill="none" xmlns="http://www.w3.org/2000/svg">
<path d="M22.3312 12.7636L22.331 12.7635C22.0865 12.6328 21.8137 12.5644 21.5366 12.5644C21.2595 12.5644 20.9867 12.6328 20.7423 12.7635L20.7421 12.7636L1.48987 23.0734L1.4896 23.0735C1.21973 23.2183 0.994308 23.4338 0.837228 23.6969C0.680157 23.96 0.597264 24.2608 0.597264 24.5673C0.597264 24.8738 0.680157 25.1747 0.837228 25.4377C0.994308 25.7008 1.21973 25.9164 1.4896 26.0611L1.48986 26.0613L8.3258 29.7222L1.48735 33.3831L1.48703 33.3833C1.21716 33.5281 0.991741 33.7436 0.834661 34.0067C0.67759 34.2698 0.594697 34.5706 0.594697 34.8771C0.594697 35.1836 0.67759 35.4844 0.834661 35.7475C0.991741 36.0106 1.21716 36.2261 1.48703 36.3709L1.4873 36.3711L20.7395 46.6808L20.7397 46.681C20.9842 46.8116 21.257 46.88 21.5341 46.88C21.8112 46.88 22.084 46.8116 22.3284 46.681L22.3286 46.6808L41.5808 36.3711L41.5811 36.3709C41.851 36.2261 42.0764 36.0106 42.2335 35.7475C42.3905 35.4844 42.4734 35.1836 42.4734 34.8771C42.4734 34.5706 42.3905 34.2698 42.2335 34.0067C42.0764 33.7436 41.851 33.5281 41.5811 33.3833L41.5809 33.3832L34.7496 29.7223L41.5835 26.0612L41.5837 26.0611C41.8535 25.9164 42.079 25.7008 42.236 25.4377L41.888 25.23L42.236 25.4377C42.3931 25.1747 42.476 24.8738 42.476 24.5673C42.476 24.2608 42.3931 23.96 42.236 23.6969L41.888 23.9047L42.236 23.6969C42.079 23.4338 41.8535 23.2183 41.5837 23.0735L41.5834 23.0734L22.3312 12.7636ZM20.7421 36.3711L20.7423 36.3712C20.9867 36.5019 21.2595 36.5703 21.5366 36.5703C21.8137 36.5703 22.0865 36.5019 22.331 36.3712L22.3312 36.3711L31.1627 31.6433L37.204 34.8771L21.5366 43.2657L5.86929 34.8771L11.9105 31.6433L20.7421 36.3711ZM21.5366 16.1787L37.2041 24.5673L21.5366 32.9559L5.86921 24.5673L21.5366 16.1787Z" fill="#333333" stroke="#333333" stroke-width="0.810606"/>
<path d="M82.7956 15.9582V43H78.3599V31.1716H65.6367V43H61.201V15.9582H65.6367V27.5531H78.3599V15.9582H82.7956ZM87.1564 32.1833C87.1564 30.0303 87.5974 28.1238 88.4793 26.4636C89.3872 24.8035 90.6064 23.5195 92.1368 22.6116C93.6931 21.6778 95.4051 21.2109 97.2728 21.2109C98.9588 21.2109 100.424 21.5481 101.67 22.2225C102.941 22.871 103.952 23.6881 104.704 24.6738V21.5611H109.179V43H104.704V39.8095C103.952 40.8211 102.928 41.6641 101.631 42.3385C100.334 43.013 98.8551 43.3502 97.195 43.3502C95.3533 43.3502 93.6672 42.8833 92.1368 41.9495C90.6064 40.9897 89.3872 39.6668 88.4793 37.9807C87.5974 36.2687 87.1564 34.3362 87.1564 32.1833ZM104.704 32.2611C104.704 30.7825 104.393 29.4985 103.771 28.4091C103.174 27.3196 102.383 26.4896 101.397 25.9189C100.411 25.3482 99.3479 25.0629 98.2066 25.0629C97.0653 25.0629 96.0017 25.3482 95.0161 25.9189C94.0304 26.4636 93.2262 27.2807 92.6037 28.3702C92.0071 29.4337 91.7088 30.7047 91.7088 32.1833C91.7088 33.6618 92.0071 34.9588 92.6037 36.0742C93.2262 37.1896 94.0304 38.0456 95.0161 38.6422C96.0277 39.2128 97.0912 39.4982 98.2066 39.4982C99.3479 39.4982 100.411 39.2128 101.397 38.6422C102.383 38.0715 103.174 37.2415 103.771 36.152C104.393 35.0366 104.704 33.7396 104.704 32.2611ZM125.822 21.2109C127.508 21.2109 129.012 21.5611 130.335 22.2615C131.684 22.9618 132.735 23.9994 133.487 25.3742C134.239 26.749 134.615 28.4091 134.615 30.3545V43H130.218V31.016C130.218 29.0965 129.739 27.6309 128.779 26.6193C127.819 25.5817 126.509 25.0629 124.849 25.0629C123.189 25.0629 121.866 25.5817 120.88 26.6193C119.921 27.6309 119.441 29.0965 119.441 31.016V43H115.005V21.5611H119.441V24.0124C120.167 23.1304 121.088 22.443 122.203 21.9502C123.345 21.4573 124.551 21.2109 125.822 21.2109ZM138.795 32.1833C138.795 30.0303 139.236 28.1238 140.117 26.4636C141.025 24.8035 142.244 23.5195 143.775 22.6116C145.331 21.6778 147.056 21.2109 148.95 21.2109C150.351 21.2109 151.725 21.5222 153.074 22.1447C154.449 22.7413 155.538 23.5455 156.343 24.5571V14.2073H160.817V43H156.343V39.7705C155.616 40.8081 154.605 41.6641 153.308 42.3385C152.037 43.013 150.571 43.3502 148.911 43.3502C147.043 43.3502 145.331 42.8833 143.775 41.9495C142.244 40.9897 141.025 39.6668 140.117 37.9807C139.236 36.2687 138.795 34.3362 138.795 32.1833ZM156.343 32.2611C156.343 30.7825 156.031 29.4985 155.409 28.4091C154.812 27.3196 154.021 26.4896 153.035 25.9189C152.05 25.3482 150.986 25.0629 149.845 25.0629C148.703 25.0629 147.64 25.3482 146.654 25.9189C145.668 26.4636 144.864 27.2807 144.242 28.3702C143.645 29.4337 143.347 30.7047 143.347 32.1833C143.347 33.6618 143.645 34.9588 144.242 36.0742C144.864 37.1896 145.668 38.0456 146.654 38.6422C147.666 39.2128 148.729 39.4982 149.845 39.4982C150.986 39.4982 152.05 39.2128 153.035 38.6422C154.021 38.0715 154.812 37.2415 155.409 36.152C156.031 35.0366 156.343 33.7396 156.343 32.2611ZM175.942 43.3502C173.919 43.3502 172.09 42.8962 170.456 41.9884C168.822 41.0545 167.538 39.7576 166.604 38.0975C165.67 36.4114 165.203 34.4659 165.203 32.2611C165.203 30.0822 165.683 28.1497 166.643 26.4636C167.603 24.7776 168.913 23.4806 170.573 22.5727C172.233 21.6649 174.088 21.2109 176.137 21.2109C178.186 21.2109 180.041 21.6649 181.701 22.5727C183.361 23.4806 184.671 24.7776 185.631 26.4636C186.591 28.1497 187.07 30.0822 187.07 32.2611C187.07 34.44 186.578 36.3725 185.592 38.0585C184.606 39.7446 183.257 41.0545 181.545 41.9884C179.859 42.8962 177.992 43.3502 175.942 43.3502ZM175.942 39.4982C177.084 39.4982 178.147 39.2258 179.133 38.6811C180.145 38.1364 180.962 37.3193 181.584 36.2298C182.207 35.1404 182.518 33.8175 182.518 32.2611C182.518 30.7047 182.22 29.3948 181.623 28.3313C181.027 27.2418 180.235 26.4247 179.25 25.88C178.264 25.3353 177.2 25.0629 176.059 25.0629C174.918 25.0629 173.854 25.3353 172.869 25.88C171.909 26.4247 171.144 27.2418 170.573 28.3313C170.002 29.3948 169.717 30.7047 169.717 32.2611C169.717 34.5697 170.301 36.3595 171.468 37.6305C172.661 38.8756 174.153 39.4982 175.942 39.4982ZM200.443 25.1796H196.475V43H192V25.1796H189.471V21.5611H192V20.0436C192 17.5794 192.648 15.7896 193.945 14.6742C195.268 13.5329 197.331 12.9622 200.132 12.9622V16.6585C198.783 16.6585 197.836 16.9179 197.292 17.4367C196.747 17.9296 196.475 18.7985 196.475 20.0436V21.5611H200.443V25.1796ZM213.362 25.1796H209.394V43H204.919V25.1796H202.39V21.5611H204.919V20.0436C204.919 17.5794 205.568 15.7896 206.864 14.6742C208.187 13.5329 210.25 12.9622 213.051 12.9622V16.6585C211.702 16.6585 210.755 16.9179 210.211 17.4367C209.666 17.9296 209.394 18.7985 209.394 20.0436V21.5611H213.362V25.1796Z" fill="#333333"/>
</svg>
