<svg width="766" height="211" viewBox="0 0 766 211" fill="none" xmlns="http://www.w3.org/2000/svg">
<rect x="2.5" y="2.5" width="761" height="206" stroke="black" stroke-width="5" stroke-linejoin="round" stroke-dasharray="15 15"/>
<path d="M170.521 79L160.681 61.1409H157.918V79H146.394V31.6902H165.736C169.465 31.6902 172.632 32.3417 175.238 33.6446C177.889 34.9475 179.866 36.7447 181.169 39.036C182.472 41.2825 183.123 43.7985 183.123 46.584C183.123 49.729 182.224 52.5371 180.427 55.0081C178.675 57.4792 176.069 59.2314 172.61 60.2648L183.527 79H170.521ZM157.918 52.9864H165.062C167.173 52.9864 168.746 52.4697 169.779 51.4363C170.857 50.403 171.397 48.9428 171.397 47.0558C171.397 45.2586 170.857 43.8434 169.779 42.81C168.746 41.7767 167.173 41.26 165.062 41.26H157.918V52.9864ZM225.806 59.5909C225.806 60.6691 225.738 61.7924 225.604 62.9605H199.523C199.702 65.2968 200.444 67.0939 201.747 68.3519C203.094 69.565 204.734 70.1715 206.666 70.1715C209.542 70.1715 211.541 68.9585 212.664 66.5323H224.93C224.301 69.0034 223.155 71.2274 221.493 73.2042C219.875 75.1811 217.831 76.7311 215.36 77.8543C212.889 78.9775 210.126 79.5391 207.071 79.5391C203.386 79.5391 200.107 78.7529 197.231 77.1804C194.356 75.6079 192.109 73.3615 190.492 70.4411C188.875 67.5207 188.066 64.1062 188.066 60.1974C188.066 56.2886 188.852 52.874 190.425 49.9537C192.042 47.0333 194.288 44.7869 197.164 43.2144C200.039 41.6419 203.342 40.8556 207.071 40.8556C210.71 40.8556 213.945 41.6194 216.775 43.147C219.606 44.6746 221.807 46.8536 223.38 49.6841C224.997 52.5146 225.806 55.8169 225.806 59.5909ZM214.012 56.5582C214.012 54.5813 213.338 53.0088 211.99 51.8407C210.642 50.6725 208.958 50.0885 206.936 50.0885C205.004 50.0885 203.364 50.6501 202.016 51.7733C200.713 52.8965 199.904 54.4915 199.59 56.5582H214.012ZM248.801 68.2171L256.956 41.3948H269.221L255.877 79H241.657L228.314 41.3948H240.646L248.801 68.2171ZM291.19 79.5391C287.505 79.5391 284.181 78.7529 281.215 77.1804C278.295 75.6079 275.981 73.3615 274.274 70.4411C272.612 67.5207 271.78 64.1062 271.78 60.1974C271.78 56.3335 272.634 52.9414 274.341 50.0211C276.049 47.0558 278.385 44.7869 281.35 43.2144C284.315 41.6419 287.64 40.8556 291.324 40.8556C295.008 40.8556 298.333 41.6419 301.298 43.2144C304.264 44.7869 306.6 47.0558 308.307 50.0211C310.015 52.9414 310.868 56.3335 310.868 60.1974C310.868 64.0612 309.992 67.4758 308.24 70.4411C306.533 73.3615 304.174 75.6079 301.164 77.1804C298.198 78.7529 294.874 79.5391 291.19 79.5391ZM291.19 69.565C293.391 69.565 295.256 68.7563 296.783 67.1389C298.356 65.5214 299.142 63.2076 299.142 60.1974C299.142 57.1872 298.378 54.8734 296.851 53.2559C295.368 51.6385 293.526 50.8298 291.324 50.8298C289.078 50.8298 287.213 51.6385 285.731 53.2559C284.248 54.8284 283.507 57.1422 283.507 60.1974C283.507 63.2076 284.226 65.5214 285.663 67.1389C287.146 68.7563 288.988 69.565 291.19 69.565ZM328.506 29.1293V79H316.982V29.1293H328.506ZM373.991 41.3948V79H362.467V73.8781C361.299 75.5405 359.704 76.8884 357.682 77.9217C355.705 78.9101 353.504 79.4044 351.078 79.4044C348.202 79.4044 345.664 78.7754 343.462 77.5174C341.261 76.2144 339.553 74.3499 338.34 71.9237C337.127 69.4976 336.521 66.6446 336.521 63.3649V41.3948H347.978V61.8148C347.978 64.3308 348.629 66.2852 349.932 67.678C351.235 69.0708 352.987 69.7672 355.189 69.7672C357.435 69.7672 359.21 69.0708 360.513 67.678C361.816 66.2852 362.467 64.3308 362.467 61.8148V41.3948H373.991ZM403.228 69.228V79H397.365C393.187 79 389.929 77.9891 387.593 75.9673C385.257 73.9006 384.088 70.5534 384.088 65.9258V50.9646H379.506V41.3948H384.088V32.2294H395.613V41.3948H403.161V50.9646H395.613V66.0606C395.613 67.1838 395.882 67.9925 396.421 68.4867C396.961 68.9809 397.859 69.228 399.117 69.228H403.228ZM415.443 37.486C413.421 37.486 411.759 36.9019 410.456 35.7338C409.198 34.5207 408.569 33.0381 408.569 31.2859C408.569 29.4887 409.198 28.0061 410.456 26.8379C411.759 25.6249 413.421 25.0183 415.443 25.0183C417.42 25.0183 419.037 25.6249 420.295 26.8379C421.598 28.0061 422.25 29.4887 422.25 31.2859C422.25 33.0381 421.598 34.5207 420.295 35.7338C419.037 36.9019 417.42 37.486 415.443 37.486ZM421.171 41.3948V79H409.647V41.3948H421.171ZM446.641 79.5391C442.956 79.5391 439.632 78.7529 436.666 77.1804C433.746 75.6079 431.432 73.3615 429.725 70.4411C428.063 67.5207 427.231 64.1062 427.231 60.1974C427.231 56.3335 428.085 52.9414 429.792 50.0211C431.5 47.0558 433.836 44.7869 436.801 43.2144C439.767 41.6419 443.091 40.8556 446.775 40.8556C450.46 40.8556 453.784 41.6419 456.75 43.2144C459.715 44.7869 462.051 47.0558 463.758 50.0211C465.466 52.9414 466.319 56.3335 466.319 60.1974C466.319 64.0612 465.443 67.4758 463.691 70.4411C461.984 73.3615 459.625 75.6079 456.615 77.1804C453.649 78.7529 450.325 79.5391 446.641 79.5391ZM446.641 69.565C448.842 69.565 450.707 68.7563 452.234 67.1389C453.807 65.5214 454.593 63.2076 454.593 60.1974C454.593 57.1872 453.829 54.8734 452.302 53.2559C450.819 51.6385 448.977 50.8298 446.775 50.8298C444.529 50.8298 442.664 51.6385 441.182 53.2559C439.699 54.8284 438.958 57.1422 438.958 60.1974C438.958 63.2076 439.677 65.5214 441.114 67.1389C442.597 68.7563 444.439 69.565 446.641 69.565ZM495.347 40.9904C499.75 40.9904 503.254 42.4281 505.86 45.3036C508.511 48.1341 509.836 52.0429 509.836 57.0299V79H498.379V58.58C498.379 56.064 497.728 54.1096 496.425 52.7168C495.122 51.324 493.37 50.6276 491.168 50.6276C488.967 50.6276 487.215 51.324 485.912 52.7168C484.609 54.1096 483.957 56.064 483.957 58.58V79H472.433V41.3948H483.957V46.3819C485.125 44.7195 486.698 43.4166 488.675 42.4731C490.652 41.4846 492.876 40.9904 495.347 40.9904ZM523.64 37.486C521.618 37.486 519.956 36.9019 518.653 35.7338C517.395 34.5207 516.766 33.0381 516.766 31.2859C516.766 29.4887 517.395 28.0061 518.653 26.8379C519.956 25.6249 521.618 25.0183 523.64 25.0183C525.617 25.0183 527.234 25.6249 528.492 26.8379C529.795 28.0061 530.447 29.4887 530.447 31.2859C530.447 33.0381 529.795 34.5207 528.492 35.7338C527.234 36.9019 525.617 37.486 523.64 37.486ZM529.369 41.3948V79H517.844V41.3948H529.369ZM548.503 69.4976H564.812V79H535.631V69.8346L551.266 50.8972H535.766V41.3948H564.475V50.5602L548.503 69.4976ZM606.602 59.5909C606.602 60.6691 606.534 61.7924 606.4 62.9605H580.319C580.498 65.2968 581.24 67.0939 582.543 68.3519C583.89 69.565 585.53 70.1715 587.462 70.1715C590.338 70.1715 592.337 68.9585 593.46 66.5323H605.726C605.097 69.0034 603.951 71.2274 602.289 73.2042C600.671 75.1811 598.627 76.7311 596.156 77.8543C593.685 78.9775 590.922 79.5391 587.867 79.5391C584.182 79.5391 580.903 78.7529 578.027 77.1804C575.152 75.6079 572.905 73.3615 571.288 70.4411C569.671 67.5207 568.862 64.1062 568.862 60.1974C568.862 56.2886 569.648 52.874 571.221 49.9537C572.838 47.0333 575.084 44.7869 577.96 43.2144C580.835 41.6419 584.138 40.8556 587.867 40.8556C591.506 40.8556 594.741 41.6194 597.571 43.147C600.402 44.6746 602.603 46.8536 604.176 49.6841C605.793 52.5146 606.602 55.8169 606.602 59.5909ZM594.808 56.5582C594.808 54.5813 594.134 53.0088 592.786 51.8407C591.438 50.6725 589.754 50.0885 587.732 50.0885C585.8 50.0885 584.16 50.6501 582.812 51.7733C581.509 52.8965 580.7 54.4915 580.386 56.5582H594.808ZM128.112 142.395L117.936 180H105.199L99.2684 155.604L93.1356 180H80.4657L70.222 142.395H81.7462L87.0702 169.285L93.4052 142.395H105.603L112.006 169.15L117.262 142.395H128.112ZM167.956 160.591C167.956 161.669 167.888 162.792 167.754 163.96H141.673C141.852 166.297 142.594 168.094 143.897 169.352C145.244 170.565 146.884 171.172 148.816 171.172C151.692 171.172 153.691 169.958 154.814 167.532H167.08C166.451 170.003 165.305 172.227 163.643 174.204C162.025 176.181 159.981 177.731 157.51 178.854C155.039 179.978 152.276 180.539 149.221 180.539C145.537 180.539 142.257 179.753 139.381 178.18C136.506 176.608 134.259 174.361 132.642 171.441C131.025 168.521 130.216 165.106 130.216 161.197C130.216 157.289 131.002 153.874 132.575 150.954C134.192 148.033 136.438 145.787 139.314 144.214C142.189 142.642 145.492 141.856 149.221 141.856C152.86 141.856 156.095 142.619 158.925 144.147C161.756 145.675 163.957 147.854 165.53 150.684C167.147 153.515 167.956 156.817 167.956 160.591ZM156.162 157.558C156.162 155.581 155.488 154.009 154.14 152.841C152.792 151.673 151.108 151.088 149.086 151.088C147.154 151.088 145.514 151.65 144.166 152.773C142.863 153.896 142.055 155.491 141.74 157.558H156.162ZM185.56 147.719C186.638 145.967 188.188 144.551 190.21 143.473C192.232 142.395 194.545 141.856 197.151 141.856C200.251 141.856 203.059 142.642 205.575 144.214C208.091 145.787 210.068 148.033 211.506 150.954C212.989 153.874 213.73 157.266 213.73 161.13C213.73 164.994 212.989 168.408 211.506 171.374C210.068 174.294 208.091 176.563 205.575 178.18C203.059 179.753 200.251 180.539 197.151 180.539C194.5 180.539 192.187 180.022 190.21 178.989C188.233 177.911 186.683 176.496 185.56 174.743V180H174.035V130.129H185.56V147.719ZM202.003 161.13C202.003 158.255 201.195 156.008 199.577 154.391C198.005 152.728 196.05 151.897 193.714 151.897C191.423 151.897 189.468 152.728 187.851 154.391C186.278 156.053 185.492 158.322 185.492 161.197C185.492 164.073 186.278 166.342 187.851 168.004C189.468 169.666 191.423 170.498 193.714 170.498C196.006 170.498 197.96 169.666 199.577 168.004C201.195 166.297 202.003 164.005 202.003 161.13ZM231.766 161.13C231.766 157.266 232.485 153.874 233.922 150.954C235.405 148.033 237.404 145.787 239.92 144.214C242.436 142.642 245.244 141.856 248.345 141.856C250.816 141.856 253.062 142.372 255.084 143.406C257.151 144.439 258.768 145.832 259.936 147.584V130.129H271.46V180H259.936V174.609C258.858 176.406 257.308 177.843 255.286 178.922C253.309 180 250.995 180.539 248.345 180.539C245.244 180.539 242.436 179.753 239.92 178.18C237.404 176.563 235.405 174.294 233.922 171.374C232.485 168.408 231.766 164.994 231.766 161.13ZM259.936 161.197C259.936 158.322 259.127 156.053 257.51 154.391C255.937 152.728 254.006 151.897 251.714 151.897C249.423 151.897 247.468 152.728 245.851 154.391C244.278 156.008 243.492 158.255 243.492 161.13C243.492 164.005 244.278 166.297 245.851 168.004C247.468 169.666 249.423 170.498 251.714 170.498C254.006 170.498 255.937 169.666 257.51 168.004C259.127 166.342 259.936 164.073 259.936 161.197ZM315.246 160.591C315.246 161.669 315.179 162.792 315.044 163.96H288.963C289.143 166.297 289.884 168.094 291.187 169.352C292.535 170.565 294.175 171.172 296.107 171.172C298.982 171.172 300.981 169.958 302.105 167.532H314.37C313.741 170.003 312.595 172.227 310.933 174.204C309.316 176.181 307.271 177.731 304.8 178.854C302.329 179.978 299.566 180.539 296.511 180.539C292.827 180.539 289.547 179.753 286.672 178.18C283.796 176.608 281.55 174.361 279.932 171.441C278.315 168.521 277.506 165.106 277.506 161.197C277.506 157.289 278.292 153.874 279.865 150.954C281.482 148.033 283.729 145.787 286.604 144.214C289.48 142.642 292.782 141.856 296.511 141.856C300.15 141.856 303.385 142.619 306.216 144.147C309.046 145.675 311.248 147.854 312.82 150.684C314.437 153.515 315.246 156.817 315.246 160.591ZM303.452 157.558C303.452 155.581 302.778 154.009 301.431 152.841C300.083 151.673 298.398 151.088 296.376 151.088C294.444 151.088 292.804 151.65 291.456 152.773C290.154 153.896 289.345 155.491 289.03 157.558H303.452ZM338.241 169.217L346.396 142.395H358.661L345.318 180H331.098L317.754 142.395H330.087L338.241 169.217ZM398.961 160.591C398.961 161.669 398.893 162.792 398.759 163.96H372.677C372.857 166.297 373.599 168.094 374.901 169.352C376.249 170.565 377.889 171.172 379.821 171.172C382.697 171.172 384.696 169.958 385.819 167.532H398.085C397.456 170.003 396.31 172.227 394.648 174.204C393.03 176.181 390.986 177.731 388.515 178.854C386.044 179.978 383.281 180.539 380.225 180.539C376.541 180.539 373.262 179.753 370.386 178.18C367.511 176.608 365.264 174.361 363.647 171.441C362.029 168.521 361.221 165.106 361.221 161.197C361.221 157.289 362.007 153.874 363.579 150.954C365.197 148.033 367.443 145.787 370.319 144.214C373.194 142.642 376.496 141.856 380.225 141.856C383.865 141.856 387.1 142.619 389.93 144.147C392.761 145.675 394.962 147.854 396.535 150.684C398.152 153.515 398.961 156.817 398.961 160.591ZM387.167 157.558C387.167 155.581 386.493 154.009 385.145 152.841C383.797 151.673 382.112 151.088 380.091 151.088C378.159 151.088 376.519 151.65 375.171 152.773C373.868 153.896 373.059 155.491 372.745 157.558H387.167ZM416.564 130.129V180H405.04V130.129H416.564ZM442.034 180.539C438.35 180.539 435.025 179.753 432.06 178.18C429.139 176.608 426.825 174.361 425.118 171.441C423.456 168.521 422.625 165.106 422.625 161.197C422.625 157.334 423.478 153.941 425.185 151.021C426.893 148.056 429.229 145.787 432.194 144.214C435.16 142.642 438.484 141.856 442.168 141.856C445.853 141.856 449.177 142.642 452.143 144.214C455.108 145.787 457.444 148.056 459.151 151.021C460.859 153.941 461.712 157.334 461.712 161.197C461.712 165.061 460.836 168.476 459.084 171.441C457.377 174.361 455.018 176.608 452.008 178.18C449.043 179.753 445.718 180.539 442.034 180.539ZM442.034 170.565C444.235 170.565 446.1 169.756 447.627 168.139C449.2 166.521 449.986 164.208 449.986 161.197C449.986 158.187 449.222 155.873 447.695 154.256C446.212 152.638 444.37 151.83 442.168 151.83C439.922 151.83 438.058 152.638 436.575 154.256C435.092 155.828 434.351 158.142 434.351 161.197C434.351 164.208 435.07 166.521 436.507 168.139C437.99 169.756 439.832 170.565 442.034 170.565ZM479.35 147.719C480.474 145.967 482.024 144.551 484.001 143.473C485.977 142.395 488.291 141.856 490.942 141.856C494.042 141.856 496.85 142.642 499.366 144.214C501.882 145.787 503.859 148.033 505.297 150.954C506.779 153.874 507.521 157.266 507.521 161.13C507.521 164.994 506.779 168.408 505.297 171.374C503.859 174.294 501.882 176.563 499.366 178.18C496.85 179.753 494.042 180.539 490.942 180.539C488.336 180.539 486.022 180 484.001 178.922C482.024 177.843 480.474 176.451 479.35 174.743V197.927H467.826V142.395H479.35V147.719ZM495.794 161.13C495.794 158.255 494.986 156.008 493.368 154.391C491.796 152.728 489.841 151.897 487.505 151.897C485.214 151.897 483.259 152.728 481.642 154.391C480.069 156.053 479.283 158.322 479.283 161.197C479.283 164.073 480.069 166.342 481.642 168.004C483.259 169.666 485.214 170.498 487.505 170.498C489.796 170.498 491.751 169.666 493.368 168.004C494.986 166.297 495.794 164.005 495.794 161.13ZM561.55 141.99C566.223 141.99 569.929 143.406 572.67 146.236C575.456 149.067 576.848 152.998 576.848 158.03V180H565.392V159.58C565.392 157.154 564.74 155.289 563.437 153.986C562.179 152.638 560.427 151.965 558.181 151.965C555.934 151.965 554.159 152.638 552.857 153.986C551.599 155.289 550.97 157.154 550.97 159.58V180H539.513V159.58C539.513 157.154 538.861 155.289 537.558 153.986C536.3 152.638 534.548 151.965 532.302 151.965C530.055 151.965 528.281 152.638 526.978 153.986C525.72 155.289 525.091 157.154 525.091 159.58V180H513.566V142.395H525.091V147.112C526.259 145.54 527.786 144.304 529.673 143.406C531.56 142.462 533.694 141.99 536.076 141.99C538.906 141.99 541.422 142.597 543.624 143.81C545.87 145.023 547.622 146.753 548.88 148.999C550.183 146.933 551.958 145.248 554.204 143.945C556.451 142.642 558.899 141.99 561.55 141.99ZM620.357 160.591C620.357 161.669 620.289 162.792 620.155 163.96H594.074C594.253 166.297 594.995 168.094 596.298 169.352C597.645 170.565 599.285 171.172 601.217 171.172C604.093 171.172 606.092 169.958 607.215 167.532H619.481C618.852 170.003 617.706 172.227 616.044 174.204C614.426 176.181 612.382 177.731 609.911 178.854C607.44 179.978 604.677 180.539 601.622 180.539C597.937 180.539 594.658 179.753 591.782 178.18C588.907 176.608 586.66 174.361 585.043 171.441C583.426 168.521 582.617 165.106 582.617 161.197C582.617 157.289 583.403 153.874 584.976 150.954C586.593 148.033 588.839 145.787 591.715 144.214C594.59 142.642 597.893 141.856 601.622 141.856C605.261 141.856 608.496 142.619 611.326 144.147C614.157 145.675 616.358 147.854 617.931 150.684C619.548 153.515 620.357 156.817 620.357 160.591ZM608.563 157.558C608.563 155.581 607.889 154.009 606.541 152.841C605.193 151.673 603.509 151.088 601.487 151.088C599.555 151.088 597.915 151.65 596.567 152.773C595.264 153.896 594.455 155.491 594.141 157.558H608.563ZM649.35 141.99C653.753 141.99 657.257 143.428 659.863 146.304C662.514 149.134 663.839 153.043 663.839 158.03V180H652.383V159.58C652.383 157.064 651.731 155.11 650.428 153.717C649.125 152.324 647.373 151.628 645.172 151.628C642.97 151.628 641.218 152.324 639.915 153.717C638.612 155.11 637.961 157.064 637.961 159.58V180H626.436V142.395H637.961V147.382C639.129 145.719 640.701 144.417 642.678 143.473C644.655 142.485 646.879 141.99 649.35 141.99ZM692.807 170.228V180H686.944C682.765 180 679.508 178.989 677.172 176.967C674.835 174.901 673.667 171.553 673.667 166.926V151.965H669.084V142.395H673.667V133.229H685.191V142.395H692.739V151.965H685.191V167.061C685.191 168.184 685.461 168.992 686 169.487C686.539 169.981 687.438 170.228 688.696 170.228H692.807Z" fill="#117DFD"/>
</svg>
