<svg width="18" height="18" viewBox="0 0 18 18" fill="none" xmlns="http://www.w3.org/2000/svg">
<path d="M17.1251 16.2413L12.4051 11.5213C13.5394 10.1596 14.105 8.41303 13.9843 6.64495C13.8636 4.87687 13.0659 3.22338 11.7572 2.02846C10.4484 0.833537 8.72935 0.189183 6.95761 0.22944C5.18587 0.269697 3.49785 0.991466 2.24472 2.2446C0.991588 3.49773 0.269819 5.18574 0.229562 6.95748C0.189305 8.72922 0.833659 10.4483 2.02858 11.757C3.2235 13.0658 4.87699 13.8635 6.64507 13.9842C8.41316 14.1049 10.1597 13.5393 11.5214 12.405L16.2414 17.125L17.1251 16.2413ZM1.50013 7.12501C1.50013 6.01249 1.83003 4.92496 2.44812 3.99993C3.0662 3.0749 3.9447 2.35393 4.97254 1.92819C6.00037 1.50245 7.13137 1.39105 8.22252 1.60809C9.31366 1.82514 10.3159 2.36087 11.1026 3.14754C11.8893 3.93421 12.425 4.93649 12.6421 6.02763C12.8591 7.11877 12.7477 8.24977 12.322 9.27761C11.8962 10.3054 11.1752 11.1839 10.2502 11.802C9.32519 12.4201 8.23765 12.75 7.12513 12.75C5.6338 12.7484 4.20402 12.1552 3.14948 11.1007C2.09495 10.0461 1.50179 8.61635 1.50013 7.12501Z" fill="black"/>
</svg>
