<svg width="105" height="185" viewBox="0 0 105 185" fill="none" xmlns="http://www.w3.org/2000/svg">
<path d="M41.9467 172.028L41.9464 172.028L25.057 131.465C25.0568 131.464 25.0567 131.464 25.0565 131.464C24.5192 130.175 23.711 129.017 22.6869 128.069L24.3859 126.235L22.6869 128.069C21.6625 127.12 20.446 126.402 19.1199 125.965L19.1197 125.965L-24.2041 111.669C-33.6969 108.537 -34.0438 95.2256 -24.7222 91.6099L83.7109 49.5387C83.7111 49.5386 83.7119 49.5383 83.712 49.5382C85.5958 48.8064 87.6483 48.6255 89.6311 49.0161C91.6142 49.4068 93.4452 50.3532 94.9108 51.7451C96.3763 53.1369 97.4159 54.9168 97.9082 56.8771C98.4005 58.8371 98.3254 60.8967 97.6917 62.8156C97.6916 62.8158 97.6916 62.8161 97.6915 62.8163L61.9074 171.264C58.8156 180.635 45.7436 181.14 41.9467 172.028Z" fill="#D67EFF" stroke="black" stroke-width="5" stroke-linecap="square"/>
<path d="M36.7551 158L36.7548 157.999L19.8654 117.436C19.8653 117.436 19.8651 117.435 19.8649 117.435C19.3276 116.146 18.5194 114.989 17.4953 114.04L19.1943 112.206L17.4953 114.04C16.4709 113.091 15.2544 112.373 13.9283 111.936L13.9281 111.936L-29.3957 97.6405C-38.8885 94.5082 -39.2354 81.197 -29.9138 77.5813L78.5193 35.51C78.5195 35.5099 78.5203 35.5096 78.5204 35.5096C80.4042 34.7777 82.4567 34.5968 84.4395 34.9875C86.4226 35.3781 88.2536 36.3246 89.7192 37.7164C91.1847 39.1083 92.2243 40.8882 92.7166 42.8484C93.2089 44.8084 93.1338 46.868 92.5001 48.7869C92.5001 48.7872 92.5 48.7874 92.4999 48.7877L56.7158 157.236C53.624 166.606 40.552 167.111 36.7551 158Z" fill="#AD00FF" stroke="black" stroke-width="5" stroke-linecap="square"/>
</svg>
