<svg width="241" height="216" viewBox="0 0 241 216" fill="none" xmlns="http://www.w3.org/2000/svg">
<path d="M220.049 112.569L220.049 112.569L166.789 119.681C166.789 119.681 166.788 119.681 166.788 119.681C165.096 119.908 163.472 120.496 162.028 121.406C160.582 122.315 159.35 123.525 158.413 124.953L158.413 124.953L127.815 171.604C121.11 181.825 105.277 178.022 103.957 165.867L88.5809 24.4675C88.3125 22.0105 88.7483 19.5278 89.8375 17.3091C90.9266 15.0903 92.6241 13.227 94.732 11.9364C96.84 10.6458 99.2714 9.98117 101.743 10.02C104.214 10.0589 106.623 10.7995 108.689 12.1553C108.689 12.1555 108.689 12.1557 108.69 12.1559L225.465 88.7493C235.554 95.3672 232.014 110.968 220.049 112.569Z" fill="#FFC0C0" stroke="black" stroke-width="6.11444" stroke-linecap="square"/>
<path d="M201.835 114.261L201.834 114.261L148.575 121.373C148.574 121.373 148.574 121.373 148.573 121.373C146.881 121.6 145.258 122.188 143.813 123.098C142.368 124.007 141.135 125.217 140.199 126.645L140.199 126.645L109.601 173.296C102.896 183.517 87.0628 179.714 85.7423 167.559L70.3667 26.1597C70.0983 23.7027 70.5341 21.22 71.6232 19.0013C72.7123 16.7825 74.4099 14.9192 76.5178 13.6286C78.6257 12.338 81.0572 11.6734 83.5285 11.7123C85.9995 11.7511 88.4085 12.4917 90.4747 13.8476C90.4749 13.8477 90.4752 13.8479 90.4755 13.8481L207.251 90.4416C217.34 97.0594 213.8 112.66 201.835 114.261Z" fill="#FF7373" stroke="black" stroke-width="6.11444" stroke-linecap="square"/>
</svg>
